<?xml version="1.0" encoding="utf-8"?>
<!-- Generator: Adobe Illustrator 16.0.0, SVG Export Plug-In . SVG Version: 6.00 Build 0)  -->
<!DOCTYPE svg PUBLIC "-//W3C//DTD SVG 1.1//EN" "http://www.w3.org/Graphics/SVG/1.1/DTD/svg11.dtd">
<svg version="1.1" id="Layer_1" xmlns="http://www.w3.org/2000/svg" xmlns:xlink="http://www.w3.org/1999/xlink" x="0px" y="0px"
	 width="1280px" height="768px" viewBox="0 0 1280 768" enable-background="new 0 0 1280 768" xml:space="preserve">
<rect fill="#374150" width="1280" height="768"/>
<path fill="#FFFFFF" d="M484.851,280.096v-68.177h6.115v68.177h34.241v6.114h-34.241v63.591h-6.115V286.21H381.516v-7.644
	l81.935-142.468h7.032L387.63,280.096H484.851z"/>
<path fill="#FFFFFF" d="M724.536,242.797c0,68.788-30.267,107.004-84.686,107.004c-54.113,0-84.38-38.216-84.38-107.004
	c0-68.482,30.267-106.698,84.38-106.698C694.27,136.099,724.536,174.314,724.536,242.797z M561.584,242.797
	c0,64.813,27.821,100.89,78.266,100.89s78.572-36.076,78.572-100.89s-28.127-100.583-78.572-100.583
	S561.584,177.983,561.584,242.797z"/>
<path fill="#FFFFFF" d="M856.603,280.096v-68.177h6.114v68.177h34.241v6.114h-34.241v63.591h-6.114V286.21H753.268v-7.644
	l81.934-142.468h7.032l-82.852,143.997H856.603z"/>
</svg>
